<svg xmlns="http://www.w3.org/2000/svg" width="11.891" height="11.891" viewBox="0 0 11.891 11.891">
  <path id="clock-regular" d="M13.946,8a5.946,5.946,0,1,0,5.946,5.946A5.945,5.945,0,0,0,13.946,8Zm0,10.741a4.795,4.795,0,1,1,4.795-4.795A4.794,4.794,0,0,1,13.946,18.741Zm1.482-2.5-2.035-1.479a.29.29,0,0,1-.117-.233V10.589a.289.289,0,0,1,.288-.288h.767a.289.289,0,0,1,.288.288v3.4l1.6,1.165a.288.288,0,0,1,.062.4l-.451.621A.29.29,0,0,1,15.427,16.238Z" transform="translate(-8 -8)" fill="#00aeef"/>
</svg>
