<svg xmlns="http://www.w3.org/2000/svg" width="20.47" height="20.47" viewBox="0 0 20.47 20.47">
  <path id="instagram-square-brands" d="M10.235,39.8a2.437,2.437,0,1,0,2.438,2.438A2.437,2.437,0,0,0,10.235,39.8Zm5.7-1.873a2.467,2.467,0,0,0-1.389-1.389,16.215,16.215,0,0,0-4.309-.294,16.094,16.094,0,0,0-4.309.294,2.467,2.467,0,0,0-1.389,1.389,16.247,16.247,0,0,0-.294,4.31,16.184,16.184,0,0,0,.3,4.311,2.467,2.467,0,0,0,1.389,1.389,16.218,16.218,0,0,0,4.309.294,16.09,16.09,0,0,0,4.309-.294,2.467,2.467,0,0,0,1.389-1.389,16.115,16.115,0,0,0,.294-4.31,16.124,16.124,0,0,0-.294-4.31Zm-5.7,8.057a3.742,3.742,0,1,1,2.651-1.1A3.747,3.747,0,0,1,10.235,45.982Zm3.9-6.776a.87.87,0,1,1,.62-.255.875.875,0,0,1-.62.255ZM18.277,32H2.193A2.193,2.193,0,0,0,0,34.193V50.277A2.193,2.193,0,0,0,2.193,52.47H18.277a2.193,2.193,0,0,0,2.193-2.193V34.193A2.193,2.193,0,0,0,18.277,32Zm-.782,13.251a4.347,4.347,0,0,1-1.181,3.061,4.35,4.35,0,0,1-3.061,1.181c-1.207.068-4.825.068-6.031,0a4.356,4.356,0,0,1-3.061-1.181,4.334,4.334,0,0,1-1.181-3.061c-.068-1.207-.068-4.825,0-6.031a4.333,4.333,0,0,1,1.181-3.061A4.357,4.357,0,0,1,7.221,34.98c1.207-.068,4.825-.068,6.031,0a4.35,4.35,0,0,1,3.061,1.181,4.35,4.35,0,0,1,1.181,3.064C17.562,40.427,17.562,44.042,17.494,45.251Z" transform="translate(0 -32)" fill="#fff"/>
</svg>
