<svg xmlns="http://www.w3.org/2000/svg" width="20.019" height="20.019" viewBox="0 0 20.019 20.019">
  <path id="linkedin-brands" d="M18.589,32H1.425A1.436,1.436,0,0,0,0,33.443V50.576a1.436,1.436,0,0,0,1.425,1.443H18.589a1.44,1.44,0,0,0,1.43-1.443V33.443A1.44,1.44,0,0,0,18.589,32ZM6.051,49.16H3.083V39.606H6.055V49.16ZM4.567,38.3a1.72,1.72,0,1,1,1.72-1.72A1.721,1.721,0,0,1,4.567,38.3ZM17.173,49.16H14.206V44.512c0-1.108-.022-2.534-1.542-2.534-1.546,0-1.783,1.207-1.783,2.453V49.16H7.914V39.606H10.76v1.3h.04a3.125,3.125,0,0,1,2.811-1.542c3,0,3.561,1.98,3.561,4.554Z" transform="translate(0 -32)" fill="#fff"/>
</svg>
