<svg id="quote-left-solid" xmlns="http://www.w3.org/2000/svg" width="62.578" height="54.381" viewBox="0 0 62.578 54.381">
  <path id="quote-left-solid-2" data-name="quote-left-solid" d="M56.711,59.19H46.933V51.422a7.8,7.8,0,0,1,7.822-7.769h.978a2.916,2.916,0,0,0,2.933-2.913V34.913A2.916,2.916,0,0,0,55.733,32h-.978A19.484,19.484,0,0,0,35.2,51.422V80.554a5.848,5.848,0,0,0,5.867,5.827H56.711a5.848,5.848,0,0,0,5.867-5.827V65.017A5.848,5.848,0,0,0,56.711,59.19Zm-35.2,0H11.733V51.422a7.8,7.8,0,0,1,7.822-7.769h.978a2.916,2.916,0,0,0,2.933-2.913V34.913A2.916,2.916,0,0,0,20.533,32h-.978A19.484,19.484,0,0,0,0,51.422V80.554a5.848,5.848,0,0,0,5.867,5.827H21.511a5.848,5.848,0,0,0,5.867-5.827V65.017A5.848,5.848,0,0,0,21.511,59.19Z" transform="translate(0 -32)" fill="#00aeef"/>
</svg>
