<svg xmlns="http://www.w3.org/2000/svg" width="32.722" height="32.722" viewBox="0 0 32.722 32.722">
  <path id="clock-regular" d="M24.361,8A16.361,16.361,0,1,0,40.722,24.361,16.358,16.358,0,0,0,24.361,8Zm0,29.555A13.194,13.194,0,1,1,37.555,24.361,13.191,13.191,0,0,1,24.361,37.555Zm4.077-6.887-5.6-4.07a.8.8,0,0,1-.323-.64V15.125a.794.794,0,0,1,.792-.792h2.111a.794.794,0,0,1,.792.792v9.348l4.407,3.206a.791.791,0,0,1,.172,1.108L29.546,30.5A.8.8,0,0,1,28.438,30.668Z" transform="translate(-8 -8)" fill="#fff"/>
</svg>
