<svg xmlns="http://www.w3.org/2000/svg" width="20.156" height="20.156" viewBox="0 0 20.156 20.156">
  <path id="twitter-square-brands" d="M18,32H2.16A2.16,2.16,0,0,0,0,34.16V50a2.16,2.16,0,0,0,2.16,2.16H18A2.16,2.16,0,0,0,20.156,50V34.16A2.16,2.16,0,0,0,18,32Zm-2.2,7.144c.009.126.009.256.009.382a8.338,8.338,0,0,1-8.4,8.4A8.356,8.356,0,0,1,2.879,46.6a6.217,6.217,0,0,0,.711.036,5.916,5.916,0,0,0,3.662-1.26,2.955,2.955,0,0,1-2.758-2.047,3.18,3.18,0,0,0,1.332-.054,2.951,2.951,0,0,1-2.362-2.9v-.036a2.949,2.949,0,0,0,1.332.373,2.944,2.944,0,0,1-1.314-2.456,2.914,2.914,0,0,1,.4-1.489,8.378,8.378,0,0,0,6.083,3.086A2.957,2.957,0,0,1,15,37.16a5.782,5.782,0,0,0,1.872-.711,2.943,2.943,0,0,1-1.3,1.624,5.872,5.872,0,0,0,1.7-.459A6.211,6.211,0,0,1,15.8,39.144Z" transform="translate(0 -32)" fill="#fff"/>
</svg>
